{"title":"The.Grandmasters.2013.HDTS.XviD-DEYA","uid":8083329,"size":1593724259,"categoryP":"video","categoryS":"movies","magnet":"?xt=urn:btih:e43724a568f02d24cbb1f243f583d94732603046&amp;dn=The.Grandmasters.2013.HDTS.XviD-DEYA&amp;tr=udp%3A%2F%2Ftracker.openbittorrent.com%3A80&amp;tr=udp%3A%2F%2Fopen.demonii.com%3A1337&amp;tr=udp%3A%2F%2Ftracker.coppersurfer.tk%3A6969&amp;tr=udp%3A%2F%2Fexodus.desync.com%3A6969","seeders":4,"leechers":1,"uploader":"SaM","files":3,"time":1359568700,"description":"TiTLE: The.Grandmasters.2013.HDTS.XviD-DEYA\n\nLANGUAGES: Mandarin | Cantonese | Japanese\n\nSUBTiTLES: CHiNESE THOUGHT-OUT\n &lt;a href=&quot;\nhttp://www.imdb.com/title/tt1462900/&quot; rel=&quot;nofollow&quot; target=&quot;_NEW&quot;&gt;\nhttp://www.imdb.com/title/tt1462900/&lt;/a&gt;\n\nPLOT: The story of martial-arts master Ip Man, the man who trained Bruce Lee\n\nGeneral\nComplete name : C:UsersBakerDesktopThe.Grandmasters.2013.HDTS.XviD-DEYAThe.Grandmasters.2013.HDTS.XviD-DEYA.avi\nFormat : AVI\nFormat/Info : Audio Video Interleave\nFile size : 1.46 GiB\nDuration : 2h 7mn\nOverall bit rate : 1 646 Kbps\n\nVideo\nID : 0\nFormat : MPEG-4 Visual\nFormat profile : Advanced Simple@L5\nFormat settings, BVOP : 2\nFormat settings, QPel : No\nFormat settings, GMC : No warppoints\nFormat settings, Matrix : Default (H.263)\nMuxing mode : Packed bitstream\nCodec ID : XVID\nCodec ID/Hint : XviD\nDuration : 2h 7mn\nBit rate : 1 512 Kbps\nWidth : 720 pixels\nHeight : 304 pixels\nDisplay aspect ratio : 2.35:1\nFrame rate : 23.976 fps\nColor space : YUV\nChroma subsampling : 4:2:0\nBit depth : 8 bits\nScan type : Progressive\nCompression mode : Lossy\nBits/(Pixel*Frame) : 0.288\nStream size : 1.34 GiB (92%)\nWriting library : XviD 64\n\nAudio\nID : 1\nFormat : MPEG Audio\nFormat version : Version 1\nFormat profile : Layer 3\nCodec ID : 55\nCodec ID/Hint : MP3\nDuration : 2h 7mn\nBit rate mode : Constant\nBit rate : 128 Kbps\nChannel(s) : 2 channels\nSampling rate : 48.0 KHz\nCompression mode : Lossy\nStream size : 117 MiB (8%)\nAlignment : Aligned on interleaves\nInterleave, duration : 167 ms (4.00 video frames)\nInterleave, preload duration : 216 ms\nTitle : audio\nWriting library : LAME3.98.4UUUUUÂ­\n\nSOURCE: VERYPSP 720P\n\nNOTES: HOPEFULLY SOME NiCE ENGLiSH DUB WiLL POP UP\nOR EVEN JUST SOME ENGLiSH SUBTiTLES UNTiL THEN just\nEnjoy! the fighting bits lol ;)\n\nSCREENiES:\n &lt;a href=&quot;\nhttp://img546.imageshack.us/img546/5826/10430772.png&quot; rel=&quot;nofollow&quot; target=&quot;_NEW&quot;&gt;\nhttp://img546.imageshack.us/img546/5826/10430772.png&lt;/a&gt;\n &lt;a href=&quot;\nhttp://img5.imageshack.us/img5/6799/14549416.png&quot; rel=&quot;nofollow&quot; target=&quot;_NEW&quot;&gt;\nhttp://img5.imageshack.us/img5/6799/14549416.png&lt;/a&gt;\n &lt;a href=&quot;\nhttp://img822.imageshack.us/img822/5973/70178472.png&quot; rel=&quot;nofollow&quot; target=&quot;_NEW&quot;&gt;\nhttp://img822.imageshack.us/img822/5973/70178472.png&lt;/a&gt;\n &lt;a href=&quot;\nhttp://img29.imageshack.us/img29/3909/63032895.png&quot; rel=&quot;nofollow&quot; target=&quot;_NEW&quot;&gt;\nhttp://img29.imageshack.us/img29/3909/63032895.png&lt;/a&gt;\n &lt;a href=&quot;\nhttp://img13.imageshack.us/img13/977/24371197.png&quot; rel=&quot;nofollow&quot; target=&quot;_NEW&quot;&gt;\nhttp://img13.imageshack.us/img13/977/24371197.png&lt;/a&gt;\n &lt;a href=&quot;\nhttp://img502.imageshack.us/img502/4784/35227606.png&quot; rel=&quot;nofollow&quot; target=&quot;_NEW&quot;&gt;\nhttp://img502.imageshack.us/img502/4784/35227606.png&lt;/a&gt;","torrent":{"xt":"urn:btih:e43724a568f02d24cbb1f243f583d94732603046","amp;dn":"The.Grandmasters.2013.HDTS.XviD-DEYA","amp;tr":["udp%3A%2F%2Ftracker.openbittorrent.com%3A80","udp%3A%2F%2Fopen.demonii.com%3A1337","udp%3A%2F%2Ftracker.coppersurfer.tk%3A6969","udp%3A%2F%2Fexodus.desync.com%3A6969"],"infoHash":"e43724a568f02d24cbb1f243f583d94732603046","infoHashBuffer":{"type":"Buffer","data":[228,55,36,165,104,240,45,36,203,177,242,67,245,131,217,71,50,96,48,70]},"announce":[],"urlList":[]}}